<?xml version="1.0" encoding="UTF-8" standalone="no"?>
<!-- Created with Inkscape (http://www.inkscape.org/) -->

<svg
   xmlns:dc="http://purl.org/dc/elements/1.1/"
   xmlns:cc="http://creativecommons.org/ns#"
   xmlns:rdf="http://www.w3.org/1999/02/22-rdf-syntax-ns#"
   xmlns:svg="http://www.w3.org/2000/svg"
   xmlns="http://www.w3.org/2000/svg"
   xmlns:sodipodi="http://sodipodi.sourceforge.net/DTD/sodipodi-0.dtd"
   xmlns:inkscape="http://www.inkscape.org/namespaces/inkscape"
   id="svg7906"
   version="1.1"
   inkscape:version="0.48.3.1 r9886"
   width="1206.5244"
   height="1019.6944"
   xml:space="preserve"
   sodipodi:docname="t2p3_0102-000e-0001-mfg.pdf"><metadata
     id="metadata7912"><rdf:RDF><cc:Work
         rdf:about=""><dc:format>image/svg+xml</dc:format><dc:type
           rdf:resource="http://purl.org/dc/dcmitype/StillImage" /><dc:title></dc:title></cc:Work></rdf:RDF></metadata><defs
     id="defs7910" /><sodipodi:namedview
     pagecolor="#ffffff"
     bordercolor="#666666"
     borderopacity="1"
     objecttolerance="10"
     gridtolerance="10"
     guidetolerance="10"
     inkscape:pageopacity="0"
     inkscape:pageshadow="2"
     inkscape:window-width="1871"
     inkscape:window-height="1176"
     id="namedview7908"
     showgrid="false"
     fit-margin-top="0"
     fit-margin-left="0"
     fit-margin-right="0"
     fit-margin-bottom="0"
     inkscape:zoom="0.15424837"
     inkscape:cx="601.19137"
     inkscape:cy="533.45354"
     inkscape:window-x="49"
     inkscape:window-y="24"
     inkscape:window-maximized="1"
     inkscape:current-layer="g7914" /><g
     id="g7914"
     inkscape:groupmode="layer"
     inkscape:label="t2p3_0102-000e-0001-mfg"
     transform="matrix(1.25,0,0,-1.25,-388.80863,1251.2409)"><path
       d="m 524.36737,185.95717 538.57853,0"
       style="fill:none;stroke:#222226;stroke-width:1.44000006;stroke-linecap:butt;stroke-linejoin:miter;stroke-miterlimit:2;stroke-opacity:1;stroke-dasharray:none"
       id="path7924"
       inkscape:connector-curvature="0" /><path
       d="m 475.40607,214.06903 c 10.1622,-17.40852 28.80377,-28.11186 48.9613,-28.11186"
       style="fill:none;stroke:#222226;stroke-width:1.44000006;stroke-linecap:butt;stroke-linejoin:miter;stroke-miterlimit:2;stroke-opacity:1;stroke-dasharray:none"
       id="path7926"
       inkscape:connector-curvature="0" /><path
       d="m 474.89536,214.94876 c 0.16952,-0.29365 0.33978,-0.58688 0.51071,-0.87973"
       style="fill:none;stroke:#222226;stroke-width:1.44000006;stroke-linecap:butt;stroke-linejoin:miter;stroke-miterlimit:2;stroke-opacity:1;stroke-dasharray:none"
       id="path7928"
       inkscape:connector-curvature="0" /><path
       d="m 1111.9072,214.06903 c 0.1711,0.29285 0.3412,0.58608 0.5108,0.87973"
       style="fill:none;stroke:#222226;stroke-width:1.44000006;stroke-linecap:butt;stroke-linejoin:miter;stroke-miterlimit:2;stroke-opacity:1;stroke-dasharray:none"
       id="path7930"
       inkscape:connector-curvature="0" /><path
       d="m 1062.9459,185.95717 c 20.1576,0 38.7992,10.70334 48.9613,28.11186"
       style="fill:none;stroke:#222226;stroke-width:1.44000006;stroke-linecap:butt;stroke-linejoin:miter;stroke-miterlimit:2;stroke-opacity:1;stroke-dasharray:none"
       id="path7932"
       inkscape:connector-curvature="0" /><path
       d="M 474.89536,893.97345 340.24969,660.76031"
       style="fill:none;stroke:#222226;stroke-width:1.44000006;stroke-linecap:butt;stroke-linejoin:miter;stroke-miterlimit:2;stroke-opacity:1;stroke-dasharray:none"
       id="path7934"
       inkscape:connector-curvature="0" /><path
       d="M 340.24969,448.1619 474.89536,214.94876"
       style="fill:none;stroke:#222226;stroke-width:1.44000006;stroke-linecap:butt;stroke-linejoin:miter;stroke-miterlimit:2;stroke-opacity:1;stroke-dasharray:none"
       id="path7936"
       inkscape:connector-curvature="0" /><path
       d="M 1112.418,214.94876 1247.0636,448.1619"
       style="fill:none;stroke:#222226;stroke-width:1.44000006;stroke-linecap:butt;stroke-linejoin:miter;stroke-miterlimit:2;stroke-opacity:1;stroke-dasharray:none"
       id="path7938"
       inkscape:connector-curvature="0" /><path
       d="M 1247.0636,660.76031 1112.418,893.97345"
       style="fill:none;stroke:#222226;stroke-width:1.44000006;stroke-linecap:butt;stroke-linejoin:miter;stroke-miterlimit:2;stroke-opacity:1;stroke-dasharray:none"
       id="path7940"
       inkscape:connector-curvature="0" /><path
       d="m 426.85352,355.46899 c 0,3.13105 -2.53824,5.66929 -5.66929,5.66929 -3.13107,0 -5.66931,-2.53824 -5.66931,-5.66929 0,-3.13107 2.53824,-5.66931 5.66931,-5.66931 3.13105,0 5.66929,2.53824 5.66929,5.66931"
       style="fill:none;stroke:#222226;stroke-width:1.44000006;stroke-linecap:butt;stroke-linejoin:miter;stroke-miterlimit:2;stroke-opacity:1;stroke-dasharray:none"
       id="path7942"
       inkscape:connector-curvature="0" /><path
       d="m 444.79794,410.46112 c 0,3.13104 -2.5382,5.66928 -5.66928,5.66928 -3.13107,0 -5.66928,-2.53824 -5.66928,-5.66928 0,-3.13107 2.53821,-5.66931 5.66928,-5.66931 3.13108,0 5.66928,2.53824 5.66928,5.66931"
       style="fill:none;stroke:#222226;stroke-width:1.44000006;stroke-linecap:butt;stroke-linejoin:miter;stroke-miterlimit:2;stroke-opacity:1;stroke-dasharray:none"
       id="path7944"
       inkscape:connector-curvature="0" /><path
       d="m 408.79794,410.46112 c 0,3.13104 -2.5382,5.66928 -5.66928,5.66928 -3.13107,0 -5.66928,-2.53824 -5.66928,-5.66928 0,-3.13107 2.53821,-5.66931 5.66928,-5.66931 3.13108,0 5.66928,2.53824 5.66928,5.66931"
       style="fill:none;stroke:#222226;stroke-width:1.44000006;stroke-linecap:butt;stroke-linejoin:miter;stroke-miterlimit:2;stroke-opacity:1;stroke-dasharray:none"
       id="path7946"
       inkscape:connector-curvature="0" /><path
       d="m 521.5307,244.86111 c 0,3.13106 -2.53827,5.66929 -5.66931,5.66929 -3.13104,0 -5.66928,-2.53823 -5.66928,-5.66929 0,-3.13107 2.53824,-5.66929 5.66928,-5.66929 3.13104,0 5.66931,2.53822 5.66931,5.66929"
       style="fill:none;stroke:#222226;stroke-width:1.44000006;stroke-linecap:butt;stroke-linejoin:miter;stroke-miterlimit:2;stroke-opacity:1;stroke-dasharray:none"
       id="path7948"
       inkscape:connector-curvature="0" /><path
       d="m 340.24969,660.76031 c -37.97705,-65.77819 -37.97705,-146.82025 0,-212.59841"
       style="fill:none;stroke:#222226;stroke-width:1.44000006;stroke-linecap:butt;stroke-linejoin:miter;stroke-miterlimit:2;stroke-opacity:1;stroke-dasharray:none"
       id="path7950"
       inkscape:connector-curvature="0" /><path
       d="m 372.79794,446.46112 c 0,3.13104 -2.5382,5.66928 -5.66928,5.66928 -3.13107,0 -5.66928,-2.53824 -5.66928,-5.66928 0,-3.13107 2.53821,-5.66931 5.66928,-5.66931 3.13108,0 5.66928,2.53824 5.66928,5.66931"
       style="fill:none;stroke:#222226;stroke-width:1.44000006;stroke-linecap:butt;stroke-linejoin:miter;stroke-miterlimit:2;stroke-opacity:1;stroke-dasharray:none"
       id="path7952"
       inkscape:connector-curvature="0" /><path
       d="m 372.79794,482.46112 c 0,3.13104 -2.5382,5.66928 -5.66928,5.66928 -3.13107,0 -5.66928,-2.53824 -5.66928,-5.66928 0,-3.13107 2.53821,-5.66931 5.66928,-5.66931 3.13108,0 5.66928,2.53824 5.66928,5.66931"
       style="fill:none;stroke:#222226;stroke-width:1.44000006;stroke-linecap:butt;stroke-linejoin:miter;stroke-miterlimit:2;stroke-opacity:1;stroke-dasharray:none"
       id="path7954"
       inkscape:connector-curvature="0" /><path
       d="m 372.79794,518.46112 c 0,3.13104 -2.5382,5.66925 -5.66928,5.66925 -3.13107,0 -5.66928,-2.53821 -5.66928,-5.66925 0,-3.1311 2.53821,-5.66931 5.66928,-5.66931 3.13108,0 5.66928,2.53821 5.66928,5.66931"
       style="fill:none;stroke:#222226;stroke-width:1.44000006;stroke-linecap:butt;stroke-linejoin:miter;stroke-miterlimit:2;stroke-opacity:1;stroke-dasharray:none"
       id="path7956"
       inkscape:connector-curvature="0" /><path
       d="m 372.79794,554.46112 c 0,3.13104 -2.5382,5.66925 -5.66928,5.66925 -3.13107,0 -5.66928,-2.53821 -5.66928,-5.66925 0,-3.1311 2.53821,-5.66931 5.66928,-5.66931 3.13108,0 5.66928,2.53821 5.66928,5.66931"
       style="fill:none;stroke:#222226;stroke-width:1.44000006;stroke-linecap:butt;stroke-linejoin:miter;stroke-miterlimit:2;stroke-opacity:1;stroke-dasharray:none"
       id="path7958"
       inkscape:connector-curvature="0" /><path
       d="m 372.79794,590.46112 c 0,3.13104 -2.5382,5.66925 -5.66928,5.66925 -3.13107,0 -5.66928,-2.53821 -5.66928,-5.66925 0,-3.1311 2.53821,-5.66931 5.66928,-5.66931 3.13108,0 5.66928,2.53821 5.66928,5.66931"
       style="fill:none;stroke:#222226;stroke-width:1.44000006;stroke-linecap:butt;stroke-linejoin:miter;stroke-miterlimit:2;stroke-opacity:1;stroke-dasharray:none"
       id="path7960"
       inkscape:connector-curvature="0" /><path
       d="m 408.79794,590.46112 c 0,3.13104 -2.5382,5.66925 -5.66928,5.66925 -3.13107,0 -5.66928,-2.53821 -5.66928,-5.66925 0,-3.1311 2.53821,-5.66931 5.66928,-5.66931 3.13108,0 5.66928,2.53821 5.66928,5.66931"
       style="fill:none;stroke:#222226;stroke-width:1.44000006;stroke-linecap:butt;stroke-linejoin:miter;stroke-miterlimit:2;stroke-opacity:1;stroke-dasharray:none"
       id="path7962"
       inkscape:connector-curvature="0" /><path
       d="m 444.79794,590.46112 c 0,3.13104 -2.5382,5.66925 -5.66928,5.66925 -3.13107,0 -5.66928,-2.53821 -5.66928,-5.66925 0,-3.1311 2.53821,-5.66931 5.66928,-5.66931 3.13108,0 5.66928,2.53821 5.66928,5.66931"
       style="fill:none;stroke:#222226;stroke-width:1.44000006;stroke-linecap:butt;stroke-linejoin:miter;stroke-miterlimit:2;stroke-opacity:1;stroke-dasharray:none"
       id="path7964"
       inkscape:connector-curvature="0" /><path
       d="m 408.79794,518.46112 c 0,3.13104 -2.5382,5.66925 -5.66928,5.66925 -3.13107,0 -5.66928,-2.53821 -5.66928,-5.66925 0,-3.1311 2.53821,-5.66931 5.66928,-5.66931 3.13108,0 5.66928,2.53821 5.66928,5.66931"
       style="fill:none;stroke:#222226;stroke-width:1.44000006;stroke-linecap:butt;stroke-linejoin:miter;stroke-miterlimit:2;stroke-opacity:1;stroke-dasharray:none"
       id="path7966"
       inkscape:connector-curvature="0" /><path
       d="m 408.79794,482.46112 c 0,3.13104 -2.5382,5.66928 -5.66928,5.66928 -3.13107,0 -5.66928,-2.53824 -5.66928,-5.66928 0,-3.13107 2.53821,-5.66931 5.66928,-5.66931 3.13108,0 5.66928,2.53824 5.66928,5.66931"
       style="fill:none;stroke:#222226;stroke-width:1.44000006;stroke-linecap:butt;stroke-linejoin:miter;stroke-miterlimit:2;stroke-opacity:1;stroke-dasharray:none"
       id="path7968"
       inkscape:connector-curvature="0" /><path
       d="m 408.79794,446.46112 c 0,3.13104 -2.5382,5.66928 -5.66928,5.66928 -3.13107,0 -5.66928,-2.53824 -5.66928,-5.66928 0,-3.13107 2.53821,-5.66931 5.66928,-5.66931 3.13108,0 5.66928,2.53824 5.66928,5.66931"
       style="fill:none;stroke:#222226;stroke-width:1.44000006;stroke-linecap:butt;stroke-linejoin:miter;stroke-miterlimit:2;stroke-opacity:1;stroke-dasharray:none"
       id="path7970"
       inkscape:connector-curvature="0" /><path
       d="m 444.79794,446.46112 c 0,3.13104 -2.5382,5.66928 -5.66928,5.66928 -3.13107,0 -5.66928,-2.53824 -5.66928,-5.66928 0,-3.13107 2.53821,-5.66931 5.66928,-5.66931 3.13108,0 5.66928,2.53824 5.66928,5.66931"
       style="fill:none;stroke:#222226;stroke-width:1.44000006;stroke-linecap:butt;stroke-linejoin:miter;stroke-miterlimit:2;stroke-opacity:1;stroke-dasharray:none"
       id="path7972"
       inkscape:connector-curvature="0" /><path
       d="m 444.79794,482.46112 c 0,3.13104 -2.5382,5.66928 -5.66928,5.66928 -3.13107,0 -5.66928,-2.53824 -5.66928,-5.66928 0,-3.13107 2.53821,-5.66931 5.66928,-5.66931 3.13108,0 5.66928,2.53824 5.66928,5.66931"
       style="fill:none;stroke:#222226;stroke-width:1.44000006;stroke-linecap:butt;stroke-linejoin:miter;stroke-miterlimit:2;stroke-opacity:1;stroke-dasharray:none"
       id="path7974"
       inkscape:connector-curvature="0" /><path
       d="m 444.79794,518.46112 c 0,3.13104 -2.5382,5.66925 -5.66928,5.66925 -3.13107,0 -5.66928,-2.53821 -5.66928,-5.66925 0,-3.1311 2.53821,-5.66931 5.66928,-5.66931 3.13108,0 5.66928,2.53821 5.66928,5.66931"
       style="fill:none;stroke:#222226;stroke-width:1.44000006;stroke-linecap:butt;stroke-linejoin:miter;stroke-miterlimit:2;stroke-opacity:1;stroke-dasharray:none"
       id="path7976"
       inkscape:connector-curvature="0" /><path
       d="m 408.79794,554.46112 c 0,3.13104 -2.5382,5.66925 -5.66928,5.66925 -3.13107,0 -5.66928,-2.53821 -5.66928,-5.66925 0,-3.1311 2.53821,-5.66931 5.66928,-5.66931 3.13108,0 5.66928,2.53821 5.66928,5.66931"
       style="fill:none;stroke:#222226;stroke-width:1.44000006;stroke-linecap:butt;stroke-linejoin:miter;stroke-miterlimit:2;stroke-opacity:1;stroke-dasharray:none"
       id="path7978"
       inkscape:connector-curvature="0" /><path
       d="m 444.79794,554.46112 c 0,3.13104 -2.5382,5.66925 -5.66928,5.66925 -3.13107,0 -5.66928,-2.53821 -5.66928,-5.66925 0,-3.1311 2.53821,-5.66931 5.66928,-5.66931 3.13108,0 5.66928,2.53821 5.66928,5.66931"
       style="fill:none;stroke:#222226;stroke-width:1.44000006;stroke-linecap:butt;stroke-linejoin:miter;stroke-miterlimit:2;stroke-opacity:1;stroke-dasharray:none"
       id="path7980"
       inkscape:connector-curvature="0" /><path
       d="m 521.54993,554.46112 c 0,3.13104 -2.53821,5.66925 -5.66925,5.66925 -3.13111,0 -5.66932,-2.53821 -5.66932,-5.66925 0,-3.1311 2.53821,-5.66931 5.66932,-5.66931 3.13104,0 5.66925,2.53821 5.66925,5.66931"
       style="fill:none;stroke:#222226;stroke-width:1.44000006;stroke-linecap:butt;stroke-linejoin:miter;stroke-miterlimit:2;stroke-opacity:1;stroke-dasharray:none"
       id="path7982"
       inkscape:connector-curvature="0" /><path
       d="m 745.32593,284.46112 c 0,3.13104 -2.53821,5.66928 -5.66925,5.66928 -3.13111,0 -5.66931,-2.53824 -5.66931,-5.66928 0,-3.13107 2.5382,-5.66931 5.66931,-5.66931 3.13104,0 5.66925,2.53824 5.66925,5.66931"
       style="fill:none;stroke:#222226;stroke-width:1.44000006;stroke-linecap:butt;stroke-linejoin:miter;stroke-miterlimit:2;stroke-opacity:1;stroke-dasharray:none"
       id="path7984"
       inkscape:connector-curvature="0" /><path
       d="m 691.32593,284.46112 c 0,3.13104 -2.53821,5.66928 -5.66925,5.66928 -3.13111,0 -5.66931,-2.53824 -5.66931,-5.66928 0,-3.13107 2.5382,-5.66931 5.66931,-5.66931 3.13104,0 5.66925,2.53824 5.66925,5.66931"
       style="fill:none;stroke:#222226;stroke-width:1.44000006;stroke-linecap:butt;stroke-linejoin:miter;stroke-miterlimit:2;stroke-opacity:1;stroke-dasharray:none"
       id="path7986"
       inkscape:connector-curvature="0" /><path
       d="m 637.32593,284.46112 c 0,3.13104 -2.53821,5.66928 -5.66925,5.66928 -3.13111,0 -5.66931,-2.53824 -5.66931,-5.66928 0,-3.13107 2.5382,-5.66931 5.66931,-5.66931 3.13104,0 5.66925,2.53824 5.66925,5.66931"
       style="fill:none;stroke:#222226;stroke-width:1.44000006;stroke-linecap:butt;stroke-linejoin:miter;stroke-miterlimit:2;stroke-opacity:1;stroke-dasharray:none"
       id="path7988"
       inkscape:connector-curvature="0" /><path
       d="m 745.32593,338.46112 c 0,3.13104 -2.53821,5.66928 -5.66925,5.66928 -3.13111,0 -5.66931,-2.53824 -5.66931,-5.66928 0,-3.13107 2.5382,-5.66931 5.66931,-5.66931 3.13104,0 5.66925,2.53824 5.66925,5.66931"
       style="fill:none;stroke:#222226;stroke-width:1.44000006;stroke-linecap:butt;stroke-linejoin:miter;stroke-miterlimit:2;stroke-opacity:1;stroke-dasharray:none"
       id="path7990"
       inkscape:connector-curvature="0" /><path
       d="m 691.32593,338.46112 c 0,3.13104 -2.53821,5.66928 -5.66925,5.66928 -3.13111,0 -5.66931,-2.53824 -5.66931,-5.66928 0,-3.13107 2.5382,-5.66931 5.66931,-5.66931 3.13104,0 5.66925,2.53824 5.66925,5.66931"
       style="fill:none;stroke:#222226;stroke-width:1.44000006;stroke-linecap:butt;stroke-linejoin:miter;stroke-miterlimit:2;stroke-opacity:1;stroke-dasharray:none"
       id="path7992"
       inkscape:connector-curvature="0" /><path
       d="m 637.32593,338.46112 c 0,3.13104 -2.53821,5.66928 -5.66925,5.66928 -3.13111,0 -5.66931,-2.53824 -5.66931,-5.66928 0,-3.13107 2.5382,-5.66931 5.66931,-5.66931 3.13104,0 5.66925,2.53824 5.66925,5.66931"
       style="fill:none;stroke:#222226;stroke-width:1.44000006;stroke-linecap:butt;stroke-linejoin:miter;stroke-miterlimit:2;stroke-opacity:1;stroke-dasharray:none"
       id="path7994"
       inkscape:connector-curvature="0" /><path
       d="m 745.32593,392.46112 c 0,3.13104 -2.53821,5.66928 -5.66925,5.66928 -3.13111,0 -5.66931,-2.53824 -5.66931,-5.66928 0,-3.13107 2.5382,-5.66931 5.66931,-5.66931 3.13104,0 5.66925,2.53824 5.66925,5.66931"
       style="fill:none;stroke:#222226;stroke-width:1.44000006;stroke-linecap:butt;stroke-linejoin:miter;stroke-miterlimit:2;stroke-opacity:1;stroke-dasharray:none"
       id="path7996"
       inkscape:connector-curvature="0" /><path
       d="m 691.32593,392.46112 c 0,3.13104 -2.53821,5.66928 -5.66925,5.66928 -3.13111,0 -5.66931,-2.53824 -5.66931,-5.66928 0,-3.13107 2.5382,-5.66931 5.66931,-5.66931 3.13104,0 5.66925,2.53824 5.66925,5.66931"
       style="fill:none;stroke:#222226;stroke-width:1.44000006;stroke-linecap:butt;stroke-linejoin:miter;stroke-miterlimit:2;stroke-opacity:1;stroke-dasharray:none"
       id="path7998"
       inkscape:connector-curvature="0" /><path
       d="m 637.32593,392.46112 c 0,3.13104 -2.53821,5.66928 -5.66925,5.66928 -3.13111,0 -5.66931,-2.53824 -5.66931,-5.66928 0,-3.13107 2.5382,-5.66931 5.66931,-5.66931 3.13104,0 5.66925,2.53824 5.66925,5.66931"
       style="fill:none;stroke:#222226;stroke-width:1.44000006;stroke-linecap:butt;stroke-linejoin:miter;stroke-miterlimit:2;stroke-opacity:1;stroke-dasharray:none"
       id="path8000"
       inkscape:connector-curvature="0" /><path
       d="m 637.32593,446.46112 c 0,3.13104 -2.53821,5.66928 -5.66925,5.66928 -3.13111,0 -5.66931,-2.53824 -5.66931,-5.66928 0,-3.13107 2.5382,-5.66931 5.66931,-5.66931 3.13104,0 5.66925,2.53824 5.66925,5.66931"
       style="fill:none;stroke:#222226;stroke-width:1.44000006;stroke-linecap:butt;stroke-linejoin:miter;stroke-miterlimit:2;stroke-opacity:1;stroke-dasharray:none"
       id="path8002"
       inkscape:connector-curvature="0" /><path
       d="m 637.32593,500.46112 c 0,3.13104 -2.53821,5.66928 -5.66925,5.66928 -3.13111,0 -5.66931,-2.53824 -5.66931,-5.66928 0,-3.13107 2.5382,-5.66931 5.66931,-5.66931 3.13104,0 5.66925,2.53824 5.66925,5.66931"
       style="fill:none;stroke:#222226;stroke-width:1.44000006;stroke-linecap:butt;stroke-linejoin:miter;stroke-miterlimit:2;stroke-opacity:1;stroke-dasharray:none"
       id="path8004"
       inkscape:connector-curvature="0" /><path
       d="m 637.32593,554.46112 c 0,3.13104 -2.53821,5.66925 -5.66925,5.66925 -3.13111,0 -5.66931,-2.53821 -5.66931,-5.66925 0,-3.1311 2.5382,-5.66931 5.66931,-5.66931 3.13104,0 5.66925,2.53821 5.66925,5.66931"
       style="fill:none;stroke:#222226;stroke-width:1.44000006;stroke-linecap:butt;stroke-linejoin:miter;stroke-miterlimit:2;stroke-opacity:1;stroke-dasharray:none"
       id="path8006"
       inkscape:connector-curvature="0" /><path
       d="m 637.32593,608.46112 c 0,3.13104 -2.53821,5.66925 -5.66925,5.66925 -3.13111,0 -5.66931,-2.53821 -5.66931,-5.66925 0,-3.1311 2.5382,-5.66931 5.66931,-5.66931 3.13104,0 5.66925,2.53821 5.66925,5.66931"
       style="fill:none;stroke:#222226;stroke-width:1.44000006;stroke-linecap:butt;stroke-linejoin:miter;stroke-miterlimit:2;stroke-opacity:1;stroke-dasharray:none"
       id="path8008"
       inkscape:connector-curvature="0" /><path
       d="m 745.32593,446.46112 c 0,3.13104 -2.53821,5.66928 -5.66925,5.66928 -3.13111,0 -5.66931,-2.53824 -5.66931,-5.66928 0,-3.13107 2.5382,-5.66931 5.66931,-5.66931 3.13104,0 5.66925,2.53824 5.66925,5.66931"
       style="fill:none;stroke:#222226;stroke-width:1.44000006;stroke-linecap:butt;stroke-linejoin:miter;stroke-miterlimit:2;stroke-opacity:1;stroke-dasharray:none"
       id="path8010"
       inkscape:connector-curvature="0" /><path
       d="m 691.32593,446.46112 c 0,3.13104 -2.53821,5.66928 -5.66925,5.66928 -3.13111,0 -5.66931,-2.53824 -5.66931,-5.66928 0,-3.13107 2.5382,-5.66931 5.66931,-5.66931 3.13104,0 5.66925,2.53824 5.66925,5.66931"
       style="fill:none;stroke:#222226;stroke-width:1.44000006;stroke-linecap:butt;stroke-linejoin:miter;stroke-miterlimit:2;stroke-opacity:1;stroke-dasharray:none"
       id="path8012"
       inkscape:connector-curvature="0" /><path
       d="m 691.32593,500.46112 c 0,3.13104 -2.53821,5.66928 -5.66925,5.66928 -3.13111,0 -5.66931,-2.53824 -5.66931,-5.66928 0,-3.13107 2.5382,-5.66931 5.66931,-5.66931 3.13104,0 5.66925,2.53824 5.66925,5.66931"
       style="fill:none;stroke:#222226;stroke-width:1.44000006;stroke-linecap:butt;stroke-linejoin:miter;stroke-miterlimit:2;stroke-opacity:1;stroke-dasharray:none"
       id="path8014"
       inkscape:connector-curvature="0" /><path
       d="m 691.32593,554.46112 c 0,3.13104 -2.53821,5.66925 -5.66925,5.66925 -3.13111,0 -5.66931,-2.53821 -5.66931,-5.66925 0,-3.1311 2.5382,-5.66931 5.66931,-5.66931 3.13104,0 5.66925,2.53821 5.66925,5.66931"
       style="fill:none;stroke:#222226;stroke-width:1.44000006;stroke-linecap:butt;stroke-linejoin:miter;stroke-miterlimit:2;stroke-opacity:1;stroke-dasharray:none"
       id="path8016"
       inkscape:connector-curvature="0" /><path
       d="m 691.32593,608.46112 c 0,3.13104 -2.53821,5.66925 -5.66925,5.66925 -3.13111,0 -5.66931,-2.53821 -5.66931,-5.66925 0,-3.1311 2.5382,-5.66931 5.66931,-5.66931 3.13104,0 5.66925,2.53821 5.66925,5.66931"
       style="fill:none;stroke:#222226;stroke-width:1.44000006;stroke-linecap:butt;stroke-linejoin:miter;stroke-miterlimit:2;stroke-opacity:1;stroke-dasharray:none"
       id="path8018"
       inkscape:connector-curvature="0" /><path
       d="m 745.32593,500.46112 c 0,3.13104 -2.53821,5.66928 -5.66925,5.66928 -3.13111,0 -5.66931,-2.53824 -5.66931,-5.66928 0,-3.13107 2.5382,-5.66931 5.66931,-5.66931 3.13104,0 5.66925,2.53824 5.66925,5.66931"
       style="fill:none;stroke:#222226;stroke-width:1.44000006;stroke-linecap:butt;stroke-linejoin:miter;stroke-miterlimit:2;stroke-opacity:1;stroke-dasharray:none"
       id="path8020"
       inkscape:connector-curvature="0" /><path
       d="m 745.32593,554.46112 c 0,3.13104 -2.53821,5.66925 -5.66925,5.66925 -3.13111,0 -5.66931,-2.53821 -5.66931,-5.66925 0,-3.1311 2.5382,-5.66931 5.66931,-5.66931 3.13104,0 5.66925,2.53821 5.66925,5.66931"
       style="fill:none;stroke:#222226;stroke-width:1.44000006;stroke-linecap:butt;stroke-linejoin:miter;stroke-miterlimit:2;stroke-opacity:1;stroke-dasharray:none"
       id="path8022"
       inkscape:connector-curvature="0" /><path
       d="m 745.32593,608.46112 c 0,3.13104 -2.53821,5.66925 -5.66925,5.66925 -3.13111,0 -5.66931,-2.53821 -5.66931,-5.66925 0,-3.1311 2.5382,-5.66931 5.66931,-5.66931 3.13104,0 5.66925,2.53821 5.66925,5.66931"
       style="fill:none;stroke:#222226;stroke-width:1.44000006;stroke-linecap:butt;stroke-linejoin:miter;stroke-miterlimit:2;stroke-opacity:1;stroke-dasharray:none"
       id="path8024"
       inkscape:connector-curvature="0" /><path
       d="m 372.79794,626.46112 c 0,3.13104 -2.5382,5.66925 -5.66928,5.66925 -3.13107,0 -5.66928,-2.53821 -5.66928,-5.66925 0,-3.1311 2.53821,-5.66931 5.66928,-5.66931 3.13108,0 5.66928,2.53821 5.66928,5.66931"
       style="fill:none;stroke:#222226;stroke-width:1.44000006;stroke-linecap:butt;stroke-linejoin:miter;stroke-miterlimit:2;stroke-opacity:1;stroke-dasharray:none"
       id="path8026"
       inkscape:connector-curvature="0" /><path
       d="m 372.79794,662.46112 c 0,3.13104 -2.5382,5.66925 -5.66928,5.66925 -3.13107,0 -5.66928,-2.53821 -5.66928,-5.66925 0,-3.1311 2.53821,-5.66931 5.66928,-5.66931 3.13108,0 5.66928,2.53821 5.66928,5.66931"
       style="fill:none;stroke:#222226;stroke-width:1.44000006;stroke-linecap:butt;stroke-linejoin:miter;stroke-miterlimit:2;stroke-opacity:1;stroke-dasharray:none"
       id="path8028"
       inkscape:connector-curvature="0" /><path
       d="m 426.85352,697.04376 c 0,3.13111 -2.53824,5.66931 -5.66929,5.66931 -3.13107,0 -5.66931,-2.5382 -5.66931,-5.66931 0,-3.13104 2.53824,-5.66925 5.66931,-5.66925 3.13105,0 5.66929,2.53821 5.66929,5.66925"
       style="fill:none;stroke:#222226;stroke-width:1.44000006;stroke-linecap:butt;stroke-linejoin:miter;stroke-miterlimit:2;stroke-opacity:1;stroke-dasharray:none"
       id="path8030"
       inkscape:connector-curvature="0" /><path
       d="m 408.79794,626.46112 c 0,3.13104 -2.5382,5.66925 -5.66928,5.66925 -3.13107,0 -5.66928,-2.53821 -5.66928,-5.66925 0,-3.1311 2.53821,-5.66931 5.66928,-5.66931 3.13108,0 5.66928,2.53821 5.66928,5.66931"
       style="fill:none;stroke:#222226;stroke-width:1.44000006;stroke-linecap:butt;stroke-linejoin:miter;stroke-miterlimit:2;stroke-opacity:1;stroke-dasharray:none"
       id="path8032"
       inkscape:connector-curvature="0" /><path
       d="m 408.79794,662.46112 c 0,3.13104 -2.5382,5.66925 -5.66928,5.66925 -3.13107,0 -5.66928,-2.53821 -5.66928,-5.66925 0,-3.1311 2.53821,-5.66931 5.66928,-5.66931 3.13108,0 5.66928,2.53821 5.66928,5.66931"
       style="fill:none;stroke:#222226;stroke-width:1.44000006;stroke-linecap:butt;stroke-linejoin:miter;stroke-miterlimit:2;stroke-opacity:1;stroke-dasharray:none"
       id="path8034"
       inkscape:connector-curvature="0" /><path
       d="m 444.79794,662.46112 c 0,3.13104 -2.5382,5.66925 -5.66928,5.66925 -3.13107,0 -5.66928,-2.53821 -5.66928,-5.66925 0,-3.1311 2.53821,-5.66931 5.66928,-5.66931 3.13108,0 5.66928,2.53821 5.66928,5.66931"
       style="fill:none;stroke:#222226;stroke-width:1.44000006;stroke-linecap:butt;stroke-linejoin:miter;stroke-miterlimit:2;stroke-opacity:1;stroke-dasharray:none"
       id="path8036"
       inkscape:connector-curvature="0" /><path
       d="m 444.79794,626.46112 c 0,3.13104 -2.5382,5.66925 -5.66928,5.66925 -3.13107,0 -5.66928,-2.53821 -5.66928,-5.66925 0,-3.1311 2.53821,-5.66931 5.66928,-5.66931 3.13108,0 5.66928,2.53821 5.66928,5.66931"
       style="fill:none;stroke:#222226;stroke-width:1.44000006;stroke-linecap:butt;stroke-linejoin:miter;stroke-miterlimit:2;stroke-opacity:1;stroke-dasharray:none"
       id="path8038"
       inkscape:connector-curvature="0" /><path
       d="m 521.5307,844.8371 c 0,3.1311 -2.53827,5.66931 -5.66931,5.66931 -3.13104,0 -5.66928,-2.53821 -5.66928,-5.66931 0,-3.13105 2.53824,-5.66925 5.66928,-5.66925 3.13104,0 5.66931,2.5382 5.66931,5.66925"
       style="fill:none;stroke:#222226;stroke-width:1.44000006;stroke-linecap:butt;stroke-linejoin:miter;stroke-miterlimit:2;stroke-opacity:1;stroke-dasharray:none"
       id="path8040"
       inkscape:connector-curvature="0" /><path
       d="m 659.01099,1000.2727 c -75.95411,0 -146.13861,-40.52105 -184.11563,-106.29925"
       style="fill:none;stroke:#222226;stroke-width:1.44000006;stroke-linecap:butt;stroke-linejoin:miter;stroke-miterlimit:2;stroke-opacity:1;stroke-dasharray:none"
       id="path8042"
       inkscape:connector-curvature="0" /><path
       d="m 637.32593,770.46112 c 0,3.13104 -2.53821,5.66925 -5.66925,5.66925 -3.13111,0 -5.66931,-2.53821 -5.66931,-5.66925 0,-3.1311 2.5382,-5.66931 5.66931,-5.66931 3.13104,0 5.66925,2.53821 5.66925,5.66931"
       style="fill:none;stroke:#222226;stroke-width:1.44000006;stroke-linecap:butt;stroke-linejoin:miter;stroke-miterlimit:2;stroke-opacity:1;stroke-dasharray:none"
       id="path8044"
       inkscape:connector-curvature="0" /><path
       d="m 691.32593,770.46112 c 0,3.13104 -2.53821,5.66925 -5.66925,5.66925 -3.13111,0 -5.66931,-2.53821 -5.66931,-5.66925 0,-3.1311 2.5382,-5.66931 5.66931,-5.66931 3.13104,0 5.66925,2.53821 5.66925,5.66931"
       style="fill:none;stroke:#222226;stroke-width:1.44000006;stroke-linecap:butt;stroke-linejoin:miter;stroke-miterlimit:2;stroke-opacity:1;stroke-dasharray:none"
       id="path8046"
       inkscape:connector-curvature="0" /><path
       d="m 745.32593,770.46112 c 0,3.13104 -2.53821,5.66925 -5.66925,5.66925 -3.13111,0 -5.66931,-2.53821 -5.66931,-5.66925 0,-3.1311 2.5382,-5.66931 5.66931,-5.66931 3.13104,0 5.66925,2.53821 5.66925,5.66931"
       style="fill:none;stroke:#222226;stroke-width:1.44000006;stroke-linecap:butt;stroke-linejoin:miter;stroke-miterlimit:2;stroke-opacity:1;stroke-dasharray:none"
       id="path8048"
       inkscape:connector-curvature="0" /><path
       d="m 637.32593,662.46112 c 0,3.13104 -2.53821,5.66925 -5.66925,5.66925 -3.13111,0 -5.66931,-2.53821 -5.66931,-5.66925 0,-3.1311 2.5382,-5.66931 5.66931,-5.66931 3.13104,0 5.66925,2.53821 5.66925,5.66931"
       style="fill:none;stroke:#222226;stroke-width:1.44000006;stroke-linecap:butt;stroke-linejoin:miter;stroke-miterlimit:2;stroke-opacity:1;stroke-dasharray:none"
       id="path8050"
       inkscape:connector-curvature="0" /><path
       d="m 637.32593,716.46112 c 0,3.13104 -2.53821,5.66925 -5.66925,5.66925 -3.13111,0 -5.66931,-2.53821 -5.66931,-5.66925 0,-3.1311 2.5382,-5.66931 5.66931,-5.66931 3.13104,0 5.66925,2.53821 5.66925,5.66931"
       style="fill:none;stroke:#222226;stroke-width:1.44000006;stroke-linecap:butt;stroke-linejoin:miter;stroke-miterlimit:2;stroke-opacity:1;stroke-dasharray:none"
       id="path8052"
       inkscape:connector-curvature="0" /><path
       d="m 691.32593,716.46112 c 0,3.13104 -2.53821,5.66925 -5.66925,5.66925 -3.13111,0 -5.66931,-2.53821 -5.66931,-5.66925 0,-3.1311 2.5382,-5.66931 5.66931,-5.66931 3.13104,0 5.66925,2.53821 5.66925,5.66931"
       style="fill:none;stroke:#222226;stroke-width:1.44000006;stroke-linecap:butt;stroke-linejoin:miter;stroke-miterlimit:2;stroke-opacity:1;stroke-dasharray:none"
       id="path8054"
       inkscape:connector-curvature="0" /><path
       d="m 745.32593,716.46112 c 0,3.13104 -2.53821,5.66925 -5.66925,5.66925 -3.13111,0 -5.66931,-2.53821 -5.66931,-5.66925 0,-3.1311 2.5382,-5.66931 5.66931,-5.66931 3.13104,0 5.66925,2.53821 5.66925,5.66931"
       style="fill:none;stroke:#222226;stroke-width:1.44000006;stroke-linecap:butt;stroke-linejoin:miter;stroke-miterlimit:2;stroke-opacity:1;stroke-dasharray:none"
       id="path8056"
       inkscape:connector-curvature="0" /><path
       d="m 691.32593,662.46112 c 0,3.13104 -2.53821,5.66925 -5.66925,5.66925 -3.13111,0 -5.66931,-2.53821 -5.66931,-5.66925 0,-3.1311 2.5382,-5.66931 5.66931,-5.66931 3.13104,0 5.66925,2.53821 5.66925,5.66931"
       style="fill:none;stroke:#222226;stroke-width:1.44000006;stroke-linecap:butt;stroke-linejoin:miter;stroke-miterlimit:2;stroke-opacity:1;stroke-dasharray:none"
       id="path8058"
       inkscape:connector-curvature="0" /><path
       d="m 745.32593,662.46112 c 0,3.13104 -2.53821,5.66925 -5.66925,5.66925 -3.13111,0 -5.66931,-2.53821 -5.66931,-5.66925 0,-3.1311 2.5382,-5.66931 5.66931,-5.66931 3.13104,0 5.66925,2.53821 5.66925,5.66931"
       style="fill:none;stroke:#222226;stroke-width:1.44000006;stroke-linecap:butt;stroke-linejoin:miter;stroke-miterlimit:2;stroke-opacity:1;stroke-dasharray:none"
       id="path8060"
       inkscape:connector-curvature="0" /><path
       d="m 637.32593,824.46112 c 0,3.13104 -2.53821,5.66925 -5.66925,5.66925 -3.13111,0 -5.66931,-2.53821 -5.66931,-5.66925 0,-3.1311 2.5382,-5.66931 5.66931,-5.66931 3.13104,0 5.66925,2.53821 5.66925,5.66931"
       style="fill:none;stroke:#222226;stroke-width:1.44000006;stroke-linecap:butt;stroke-linejoin:miter;stroke-miterlimit:2;stroke-opacity:1;stroke-dasharray:none"
       id="path8062"
       inkscape:connector-curvature="0" /><path
       d="m 691.32593,824.46112 c 0,3.13104 -2.53821,5.66925 -5.66925,5.66925 -3.13111,0 -5.66931,-2.53821 -5.66931,-5.66925 0,-3.1311 2.5382,-5.66931 5.66931,-5.66931 3.13104,0 5.66925,2.53821 5.66925,5.66931"
       style="fill:none;stroke:#222226;stroke-width:1.44000006;stroke-linecap:butt;stroke-linejoin:miter;stroke-miterlimit:2;stroke-opacity:1;stroke-dasharray:none"
       id="path8064"
       inkscape:connector-curvature="0" /><path
       d="m 745.32593,824.46112 c 0,3.13104 -2.53821,5.66925 -5.66925,5.66925 -3.13111,0 -5.66931,-2.53821 -5.66931,-5.66925 0,-3.1311 2.5382,-5.66931 5.66931,-5.66931 3.13104,0 5.66925,2.53821 5.66925,5.66931"
       style="fill:none;stroke:#222226;stroke-width:1.44000006;stroke-linecap:butt;stroke-linejoin:miter;stroke-miterlimit:2;stroke-opacity:1;stroke-dasharray:none"
       id="path8066"
       inkscape:connector-curvature="0" /><path
       d="m 756.73541,975.68945 c 0,3.09192 -2.50653,5.59845 -5.59845,5.59845 -3.09192,0 -5.59839,-2.50653 -5.59839,-5.59845 0,-3.09192 2.50647,-5.59845 5.59839,-5.59845 3.09192,0 5.59845,2.50653 5.59845,5.59845"
       style="fill:none;stroke:#222226;stroke-width:1.44000006;stroke-linecap:butt;stroke-linejoin:miter;stroke-miterlimit:2;stroke-opacity:1;stroke-dasharray:none"
       id="path8068"
       inkscape:connector-curvature="0" /><path
       d="m 961.32593,284.46112 c 0,3.13104 -2.53821,5.66928 -5.66925,5.66928 -3.13111,0 -5.66931,-2.53824 -5.66931,-5.66928 0,-3.13107 2.5382,-5.66931 5.66931,-5.66931 3.13104,0 5.66925,2.53824 5.66925,5.66931"
       style="fill:none;stroke:#222226;stroke-width:1.44000006;stroke-linecap:butt;stroke-linejoin:miter;stroke-miterlimit:2;stroke-opacity:1;stroke-dasharray:none"
       id="path8070"
       inkscape:connector-curvature="0" /><path
       d="m 907.32593,284.46112 c 0,3.13104 -2.53821,5.66928 -5.66925,5.66928 -3.13111,0 -5.66931,-2.53824 -5.66931,-5.66928 0,-3.13107 2.5382,-5.66931 5.66931,-5.66931 3.13104,0 5.66925,2.53824 5.66925,5.66931"
       style="fill:none;stroke:#222226;stroke-width:1.44000006;stroke-linecap:butt;stroke-linejoin:miter;stroke-miterlimit:2;stroke-opacity:1;stroke-dasharray:none"
       id="path8072"
       inkscape:connector-curvature="0" /><path
       d="m 853.32593,284.46112 c 0,3.13104 -2.53821,5.66928 -5.66925,5.66928 -3.13111,0 -5.66931,-2.53824 -5.66931,-5.66928 0,-3.13107 2.5382,-5.66931 5.66931,-5.66931 3.13104,0 5.66925,2.53824 5.66925,5.66931"
       style="fill:none;stroke:#222226;stroke-width:1.44000006;stroke-linecap:butt;stroke-linejoin:miter;stroke-miterlimit:2;stroke-opacity:1;stroke-dasharray:none"
       id="path8074"
       inkscape:connector-curvature="0" /><path
       d="m 799.32593,284.46112 c 0,3.13104 -2.53821,5.66928 -5.66925,5.66928 -3.13111,0 -5.66931,-2.53824 -5.66931,-5.66928 0,-3.13107 2.5382,-5.66931 5.66931,-5.66931 3.13104,0 5.66925,2.53824 5.66925,5.66931"
       style="fill:none;stroke:#222226;stroke-width:1.44000006;stroke-linecap:butt;stroke-linejoin:miter;stroke-miterlimit:2;stroke-opacity:1;stroke-dasharray:none"
       id="path8076"
       inkscape:connector-curvature="0" /><path
       d="m 961.32593,338.46112 c 0,3.13104 -2.53821,5.66928 -5.66925,5.66928 -3.13111,0 -5.66931,-2.53824 -5.66931,-5.66928 0,-3.13107 2.5382,-5.66931 5.66931,-5.66931 3.13104,0 5.66925,2.53824 5.66925,5.66931"
       style="fill:none;stroke:#222226;stroke-width:1.44000006;stroke-linecap:butt;stroke-linejoin:miter;stroke-miterlimit:2;stroke-opacity:1;stroke-dasharray:none"
       id="path8078"
       inkscape:connector-curvature="0" /><path
       d="m 907.32593,338.46112 c 0,3.13104 -2.53821,5.66928 -5.66925,5.66928 -3.13111,0 -5.66931,-2.53824 -5.66931,-5.66928 0,-3.13107 2.5382,-5.66931 5.66931,-5.66931 3.13104,0 5.66925,2.53824 5.66925,5.66931"
       style="fill:none;stroke:#222226;stroke-width:1.44000006;stroke-linecap:butt;stroke-linejoin:miter;stroke-miterlimit:2;stroke-opacity:1;stroke-dasharray:none"
       id="path8080"
       inkscape:connector-curvature="0" /><path
       d="m 853.32593,338.46112 c 0,3.13104 -2.53821,5.66928 -5.66925,5.66928 -3.13111,0 -5.66931,-2.53824 -5.66931,-5.66928 0,-3.13107 2.5382,-5.66931 5.66931,-5.66931 3.13104,0 5.66925,2.53824 5.66925,5.66931"
       style="fill:none;stroke:#222226;stroke-width:1.44000006;stroke-linecap:butt;stroke-linejoin:miter;stroke-miterlimit:2;stroke-opacity:1;stroke-dasharray:none"
       id="path8082"
       inkscape:connector-curvature="0" /><path
       d="m 799.32593,338.46112 c 0,3.13104 -2.53821,5.66928 -5.66925,5.66928 -3.13111,0 -5.66931,-2.53824 -5.66931,-5.66928 0,-3.13107 2.5382,-5.66931 5.66931,-5.66931 3.13104,0 5.66925,2.53824 5.66925,5.66931"
       style="fill:none;stroke:#222226;stroke-width:1.44000006;stroke-linecap:butt;stroke-linejoin:miter;stroke-miterlimit:2;stroke-opacity:1;stroke-dasharray:none"
       id="path8084"
       inkscape:connector-curvature="0" /><path
       d="m 961.32593,392.46112 c 0,3.13104 -2.53821,5.66928 -5.66925,5.66928 -3.13111,0 -5.66931,-2.53824 -5.66931,-5.66928 0,-3.13107 2.5382,-5.66931 5.66931,-5.66931 3.13104,0 5.66925,2.53824 5.66925,5.66931"
       style="fill:none;stroke:#222226;stroke-width:1.44000006;stroke-linecap:butt;stroke-linejoin:miter;stroke-miterlimit:2;stroke-opacity:1;stroke-dasharray:none"
       id="path8086"
       inkscape:connector-curvature="0" /><path
       d="m 907.32593,392.46112 c 0,3.13104 -2.53821,5.66928 -5.66925,5.66928 -3.13111,0 -5.66931,-2.53824 -5.66931,-5.66928 0,-3.13107 2.5382,-5.66931 5.66931,-5.66931 3.13104,0 5.66925,2.53824 5.66925,5.66931"
       style="fill:none;stroke:#222226;stroke-width:1.44000006;stroke-linecap:butt;stroke-linejoin:miter;stroke-miterlimit:2;stroke-opacity:1;stroke-dasharray:none"
       id="path8088"
       inkscape:connector-curvature="0" /><path
       d="m 853.32593,392.46112 c 0,3.13104 -2.53821,5.66928 -5.66925,5.66928 -3.13111,0 -5.66931,-2.53824 -5.66931,-5.66928 0,-3.13107 2.5382,-5.66931 5.66931,-5.66931 3.13104,0 5.66925,2.53824 5.66925,5.66931"
       style="fill:none;stroke:#222226;stroke-width:1.44000006;stroke-linecap:butt;stroke-linejoin:miter;stroke-miterlimit:2;stroke-opacity:1;stroke-dasharray:none"
       id="path8090"
       inkscape:connector-curvature="0" /><path
       d="m 799.32593,392.46112 c 0,3.13104 -2.53821,5.66928 -5.66925,5.66928 -3.13111,0 -5.66931,-2.53824 -5.66931,-5.66928 0,-3.13107 2.5382,-5.66931 5.66931,-5.66931 3.13104,0 5.66925,2.53824 5.66925,5.66931"
       style="fill:none;stroke:#222226;stroke-width:1.44000006;stroke-linecap:butt;stroke-linejoin:miter;stroke-miterlimit:2;stroke-opacity:1;stroke-dasharray:none"
       id="path8092"
       inkscape:connector-curvature="0" /><path
       d="m 799.32593,244.86111 c 0,3.13106 -2.53821,5.66929 -5.66925,5.66929 -3.13111,0 -5.66931,-2.53823 -5.66931,-5.66929 0,-3.13107 2.5382,-5.66929 5.66931,-5.66929 3.13104,0 5.66925,2.53822 5.66925,5.66929"
       style="fill:none;stroke:#222226;stroke-width:1.44000006;stroke-linecap:butt;stroke-linejoin:miter;stroke-miterlimit:2;stroke-opacity:1;stroke-dasharray:none"
       id="path8094"
       inkscape:connector-curvature="0" /><path
       d="m 961.32593,608.46112 c 0,3.13104 -2.53821,5.66925 -5.66925,5.66925 -3.13111,0 -5.66931,-2.53821 -5.66931,-5.66925 0,-3.1311 2.5382,-5.66931 5.66931,-5.66931 3.13104,0 5.66925,2.53821 5.66925,5.66931"
       style="fill:none;stroke:#222226;stroke-width:1.44000006;stroke-linecap:butt;stroke-linejoin:miter;stroke-miterlimit:2;stroke-opacity:1;stroke-dasharray:none"
       id="path8096"
       inkscape:connector-curvature="0" /><path
       d="m 961.32593,554.46112 c 0,3.13104 -2.53821,5.66925 -5.66925,5.66925 -3.13111,0 -5.66931,-2.53821 -5.66931,-5.66925 0,-3.1311 2.5382,-5.66931 5.66931,-5.66931 3.13104,0 5.66925,2.53821 5.66925,5.66931"
       style="fill:none;stroke:#222226;stroke-width:1.44000006;stroke-linecap:butt;stroke-linejoin:miter;stroke-miterlimit:2;stroke-opacity:1;stroke-dasharray:none"
       id="path8098"
       inkscape:connector-curvature="0" /><path
       d="m 961.32593,500.46112 c 0,3.13104 -2.53821,5.66928 -5.66925,5.66928 -3.13111,0 -5.66931,-2.53824 -5.66931,-5.66928 0,-3.13107 2.5382,-5.66931 5.66931,-5.66931 3.13104,0 5.66925,2.53824 5.66925,5.66931"
       style="fill:none;stroke:#222226;stroke-width:1.44000006;stroke-linecap:butt;stroke-linejoin:miter;stroke-miterlimit:2;stroke-opacity:1;stroke-dasharray:none"
       id="path8100"
       inkscape:connector-curvature="0" /><path
       d="m 961.32593,446.46112 c 0,3.13104 -2.53821,5.66928 -5.66925,5.66928 -3.13111,0 -5.66931,-2.53824 -5.66931,-5.66928 0,-3.13107 2.5382,-5.66931 5.66931,-5.66931 3.13104,0 5.66925,2.53824 5.66925,5.66931"
       style="fill:none;stroke:#222226;stroke-width:1.44000006;stroke-linecap:butt;stroke-linejoin:miter;stroke-miterlimit:2;stroke-opacity:1;stroke-dasharray:none"
       id="path8102"
       inkscape:connector-curvature="0" /><path
       d="m 907.32593,446.46112 c 0,3.13104 -2.53821,5.66928 -5.66925,5.66928 -3.13111,0 -5.66931,-2.53824 -5.66931,-5.66928 0,-3.13107 2.5382,-5.66931 5.66931,-5.66931 3.13104,0 5.66925,2.53824 5.66925,5.66931"
       style="fill:none;stroke:#222226;stroke-width:1.44000006;stroke-linecap:butt;stroke-linejoin:miter;stroke-miterlimit:2;stroke-opacity:1;stroke-dasharray:none"
       id="path8104"
       inkscape:connector-curvature="0" /><path
       d="m 853.32593,446.46112 c 0,3.13104 -2.53821,5.66928 -5.66925,5.66928 -3.13111,0 -5.66931,-2.53824 -5.66931,-5.66928 0,-3.13107 2.5382,-5.66931 5.66931,-5.66931 3.13104,0 5.66925,2.53824 5.66925,5.66931"
       style="fill:none;stroke:#222226;stroke-width:1.44000006;stroke-linecap:butt;stroke-linejoin:miter;stroke-miterlimit:2;stroke-opacity:1;stroke-dasharray:none"
       id="path8106"
       inkscape:connector-curvature="0" /><path
       d="m 799.32593,446.46112 c 0,3.13104 -2.53821,5.66928 -5.66925,5.66928 -3.13111,0 -5.66931,-2.53824 -5.66931,-5.66928 0,-3.13107 2.5382,-5.66931 5.66931,-5.66931 3.13104,0 5.66925,2.53824 5.66925,5.66931"
       style="fill:none;stroke:#222226;stroke-width:1.44000006;stroke-linecap:butt;stroke-linejoin:miter;stroke-miterlimit:2;stroke-opacity:1;stroke-dasharray:none"
       id="path8108"
       inkscape:connector-curvature="0" /><path
       d="m 907.32593,608.46112 c 0,3.13104 -2.53821,5.66925 -5.66925,5.66925 -3.13111,0 -5.66931,-2.53821 -5.66931,-5.66925 0,-3.1311 2.5382,-5.66931 5.66931,-5.66931 3.13104,0 5.66925,2.53821 5.66925,5.66931"
       style="fill:none;stroke:#222226;stroke-width:1.44000006;stroke-linecap:butt;stroke-linejoin:miter;stroke-miterlimit:2;stroke-opacity:1;stroke-dasharray:none"
       id="path8110"
       inkscape:connector-curvature="0" /><path
       d="m 907.32593,554.46112 c 0,3.13104 -2.53821,5.66925 -5.66925,5.66925 -3.13111,0 -5.66931,-2.53821 -5.66931,-5.66925 0,-3.1311 2.5382,-5.66931 5.66931,-5.66931 3.13104,0 5.66925,2.53821 5.66925,5.66931"
       style="fill:none;stroke:#222226;stroke-width:1.44000006;stroke-linecap:butt;stroke-linejoin:miter;stroke-miterlimit:2;stroke-opacity:1;stroke-dasharray:none"
       id="path8112"
       inkscape:connector-curvature="0" /><path
       d="m 907.32593,500.46112 c 0,3.13104 -2.53821,5.66928 -5.66925,5.66928 -3.13111,0 -5.66931,-2.53824 -5.66931,-5.66928 0,-3.13107 2.5382,-5.66931 5.66931,-5.66931 3.13104,0 5.66925,2.53824 5.66925,5.66931"
       style="fill:none;stroke:#222226;stroke-width:1.44000006;stroke-linecap:butt;stroke-linejoin:miter;stroke-miterlimit:2;stroke-opacity:1;stroke-dasharray:none"
       id="path8114"
       inkscape:connector-curvature="0" /><path
       d="m 853.32593,500.46112 c 0,3.13104 -2.53821,5.66928 -5.66925,5.66928 -3.13111,0 -5.66931,-2.53824 -5.66931,-5.66928 0,-3.13107 2.5382,-5.66931 5.66931,-5.66931 3.13104,0 5.66925,2.53824 5.66925,5.66931"
       style="fill:none;stroke:#222226;stroke-width:1.44000006;stroke-linecap:butt;stroke-linejoin:miter;stroke-miterlimit:2;stroke-opacity:1;stroke-dasharray:none"
       id="path8116"
       inkscape:connector-curvature="0" /><path
       d="m 799.32593,500.46112 c 0,3.13104 -2.53821,5.66928 -5.66925,5.66928 -3.13111,0 -5.66931,-2.53824 -5.66931,-5.66928 0,-3.13107 2.5382,-5.66931 5.66931,-5.66931 3.13104,0 5.66925,2.53824 5.66925,5.66931"
       style="fill:none;stroke:#222226;stroke-width:1.44000006;stroke-linecap:butt;stroke-linejoin:miter;stroke-miterlimit:2;stroke-opacity:1;stroke-dasharray:none"
       id="path8118"
       inkscape:connector-curvature="0" /><path
       d="m 799.32593,608.46112 c 0,3.13104 -2.53821,5.66925 -5.66925,5.66925 -3.13111,0 -5.66931,-2.53821 -5.66931,-5.66925 0,-3.1311 2.5382,-5.66931 5.66931,-5.66931 3.13104,0 5.66925,2.53821 5.66925,5.66931"
       style="fill:none;stroke:#222226;stroke-width:1.44000006;stroke-linecap:butt;stroke-linejoin:miter;stroke-miterlimit:2;stroke-opacity:1;stroke-dasharray:none"
       id="path8120"
       inkscape:connector-curvature="0" /><path
       d="m 853.32593,608.46112 c 0,3.13104 -2.53821,5.66925 -5.66925,5.66925 -3.13111,0 -5.66931,-2.53821 -5.66931,-5.66925 0,-3.1311 2.5382,-5.66931 5.66931,-5.66931 3.13104,0 5.66925,2.53821 5.66925,5.66931"
       style="fill:none;stroke:#222226;stroke-width:1.44000006;stroke-linecap:butt;stroke-linejoin:miter;stroke-miterlimit:2;stroke-opacity:1;stroke-dasharray:none"
       id="path8122"
       inkscape:connector-curvature="0" /><path
       d="m 853.32593,554.46112 c 0,3.13104 -2.53821,5.66925 -5.66925,5.66925 -3.13111,0 -5.66931,-2.53821 -5.66931,-5.66925 0,-3.1311 2.5382,-5.66931 5.66931,-5.66931 3.13104,0 5.66925,2.53821 5.66925,5.66931"
       style="fill:none;stroke:#222226;stroke-width:1.44000006;stroke-linecap:butt;stroke-linejoin:miter;stroke-miterlimit:2;stroke-opacity:1;stroke-dasharray:none"
       id="path8124"
       inkscape:connector-curvature="0" /><path
       d="m 799.32593,554.46112 c 0,3.13104 -2.53821,5.66925 -5.66925,5.66925 -3.13111,0 -5.66931,-2.53821 -5.66931,-5.66925 0,-3.1311 2.5382,-5.66931 5.66931,-5.66931 3.13104,0 5.66925,2.53821 5.66925,5.66931"
       style="fill:none;stroke:#222226;stroke-width:1.44000006;stroke-linecap:butt;stroke-linejoin:miter;stroke-miterlimit:2;stroke-opacity:1;stroke-dasharray:none"
       id="path8126"
       inkscape:connector-curvature="0" /><path
       d="m 1171.7983,355.46899 c 0,3.13105 -2.5382,5.66929 -5.6691,5.66929 -3.1311,0 -5.6694,-2.53824 -5.6694,-5.66929 0,-3.13107 2.5383,-5.66931 5.6694,-5.66931 3.1309,0 5.6691,2.53824 5.6691,5.66931"
       style="fill:none;stroke:#222226;stroke-width:1.44000006;stroke-linecap:butt;stroke-linejoin:miter;stroke-miterlimit:2;stroke-opacity:1;stroke-dasharray:none"
       id="path8128"
       inkscape:connector-curvature="0" /><path
       d="m 1153.854,410.46112 c 0,3.13104 -2.5383,5.66928 -5.6693,5.66928 -3.1311,0 -5.6693,-2.53824 -5.6693,-5.66928 0,-3.13107 2.5382,-5.66931 5.6693,-5.66931 3.131,0 5.6693,2.53824 5.6693,5.66931"
       style="fill:none;stroke:#222226;stroke-width:1.44000006;stroke-linecap:butt;stroke-linejoin:miter;stroke-miterlimit:2;stroke-opacity:1;stroke-dasharray:none"
       id="path8130"
       inkscape:connector-curvature="0" /><path
       d="m 1189.854,410.46112 c 0,3.13104 -2.5383,5.66928 -5.6693,5.66928 -3.1311,0 -5.6693,-2.53824 -5.6693,-5.66928 0,-3.13107 2.5382,-5.66931 5.6693,-5.66931 3.131,0 5.6693,2.53824 5.6693,5.66931"
       style="fill:none;stroke:#222226;stroke-width:1.44000006;stroke-linecap:butt;stroke-linejoin:miter;stroke-miterlimit:2;stroke-opacity:1;stroke-dasharray:none"
       id="path8132"
       inkscape:connector-curvature="0" /><path
       d="m 1077.1212,244.86111 c 0,3.13106 -2.5382,5.66929 -5.6693,5.66929 -3.131,0 -5.6693,-2.53823 -5.6693,-5.66929 0,-3.13107 2.5383,-5.66929 5.6693,-5.66929 3.1311,0 5.6693,2.53822 5.6693,5.66929"
       style="fill:none;stroke:#222226;stroke-width:1.44000006;stroke-linecap:butt;stroke-linejoin:miter;stroke-miterlimit:2;stroke-opacity:1;stroke-dasharray:none"
       id="path8134"
       inkscape:connector-curvature="0" /><path
       d="m 1247.0636,660.76031 c 37.9771,-65.77819 37.9771,-146.82025 0,-212.59841"
       style="fill:none;stroke:#222226;stroke-width:1.44000006;stroke-linecap:butt;stroke-linejoin:miter;stroke-miterlimit:2;stroke-opacity:1;stroke-dasharray:none"
       id="path8136"
       inkscape:connector-curvature="0" /><path
       d="m 1225.854,590.46112 c 0,3.13104 -2.5383,5.66925 -5.6693,5.66925 -3.1311,0 -5.6693,-2.53821 -5.6693,-5.66925 0,-3.1311 2.5382,-5.66931 5.6693,-5.66931 3.131,0 5.6693,2.53821 5.6693,5.66931"
       style="fill:none;stroke:#222226;stroke-width:1.44000006;stroke-linecap:butt;stroke-linejoin:miter;stroke-miterlimit:2;stroke-opacity:1;stroke-dasharray:none"
       id="path8138"
       inkscape:connector-curvature="0" /><path
       d="m 1225.854,554.46112 c 0,3.13104 -2.5383,5.66925 -5.6693,5.66925 -3.1311,0 -5.6693,-2.53821 -5.6693,-5.66925 0,-3.1311 2.5382,-5.66931 5.6693,-5.66931 3.131,0 5.6693,2.53821 5.6693,5.66931"
       style="fill:none;stroke:#222226;stroke-width:1.44000006;stroke-linecap:butt;stroke-linejoin:miter;stroke-miterlimit:2;stroke-opacity:1;stroke-dasharray:none"
       id="path8140"
       inkscape:connector-curvature="0" /><path
       d="m 1225.854,518.46112 c 0,3.13104 -2.5383,5.66925 -5.6693,5.66925 -3.1311,0 -5.6693,-2.53821 -5.6693,-5.66925 0,-3.1311 2.5382,-5.66931 5.6693,-5.66931 3.131,0 5.6693,2.53821 5.6693,5.66931"
       style="fill:none;stroke:#222226;stroke-width:1.44000006;stroke-linecap:butt;stroke-linejoin:miter;stroke-miterlimit:2;stroke-opacity:1;stroke-dasharray:none"
       id="path8142"
       inkscape:connector-curvature="0" /><path
       d="m 1225.854,482.46112 c 0,3.13104 -2.5383,5.66928 -5.6693,5.66928 -3.1311,0 -5.6693,-2.53824 -5.6693,-5.66928 0,-3.13107 2.5382,-5.66931 5.6693,-5.66931 3.131,0 5.6693,2.53824 5.6693,5.66931"
       style="fill:none;stroke:#222226;stroke-width:1.44000006;stroke-linecap:butt;stroke-linejoin:miter;stroke-miterlimit:2;stroke-opacity:1;stroke-dasharray:none"
       id="path8144"
       inkscape:connector-curvature="0" /><path
       d="m 1225.854,446.46112 c 0,3.13104 -2.5383,5.66928 -5.6693,5.66928 -3.1311,0 -5.6693,-2.53824 -5.6693,-5.66928 0,-3.13107 2.5382,-5.66931 5.6693,-5.66931 3.131,0 5.6693,2.53824 5.6693,5.66931"
       style="fill:none;stroke:#222226;stroke-width:1.44000006;stroke-linecap:butt;stroke-linejoin:miter;stroke-miterlimit:2;stroke-opacity:1;stroke-dasharray:none"
       id="path8146"
       inkscape:connector-curvature="0" /><path
       d="m 1189.854,590.46112 c 0,3.13104 -2.5383,5.66925 -5.6693,5.66925 -3.1311,0 -5.6693,-2.53821 -5.6693,-5.66925 0,-3.1311 2.5382,-5.66931 5.6693,-5.66931 3.131,0 5.6693,2.53821 5.6693,5.66931"
       style="fill:none;stroke:#222226;stroke-width:1.44000006;stroke-linecap:butt;stroke-linejoin:miter;stroke-miterlimit:2;stroke-opacity:1;stroke-dasharray:none"
       id="path8148"
       inkscape:connector-curvature="0" /><path
       d="m 1153.854,590.46112 c 0,3.13104 -2.5383,5.66925 -5.6693,5.66925 -3.1311,0 -5.6693,-2.53821 -5.6693,-5.66925 0,-3.1311 2.5382,-5.66931 5.6693,-5.66931 3.131,0 5.6693,2.53821 5.6693,5.66931"
       style="fill:none;stroke:#222226;stroke-width:1.44000006;stroke-linecap:butt;stroke-linejoin:miter;stroke-miterlimit:2;stroke-opacity:1;stroke-dasharray:none"
       id="path8150"
       inkscape:connector-curvature="0" /><path
       d="m 1189.854,518.46112 c 0,3.13104 -2.5383,5.66925 -5.6693,5.66925 -3.1311,0 -5.6693,-2.53821 -5.6693,-5.66925 0,-3.1311 2.5382,-5.66931 5.6693,-5.66931 3.131,0 5.6693,2.53821 5.6693,5.66931"
       style="fill:none;stroke:#222226;stroke-width:1.44000006;stroke-linecap:butt;stroke-linejoin:miter;stroke-miterlimit:2;stroke-opacity:1;stroke-dasharray:none"
       id="path8152"
       inkscape:connector-curvature="0" /><path
       d="m 1189.854,482.46112 c 0,3.13104 -2.5383,5.66928 -5.6693,5.66928 -3.1311,0 -5.6693,-2.53824 -5.6693,-5.66928 0,-3.13107 2.5382,-5.66931 5.6693,-5.66931 3.131,0 5.6693,2.53824 5.6693,5.66931"
       style="fill:none;stroke:#222226;stroke-width:1.44000006;stroke-linecap:butt;stroke-linejoin:miter;stroke-miterlimit:2;stroke-opacity:1;stroke-dasharray:none"
       id="path8154"
       inkscape:connector-curvature="0" /><path
       d="m 1189.854,446.46112 c 0,3.13104 -2.5383,5.66928 -5.6693,5.66928 -3.1311,0 -5.6693,-2.53824 -5.6693,-5.66928 0,-3.13107 2.5382,-5.66931 5.6693,-5.66931 3.131,0 5.6693,2.53824 5.6693,5.66931"
       style="fill:none;stroke:#222226;stroke-width:1.44000006;stroke-linecap:butt;stroke-linejoin:miter;stroke-miterlimit:2;stroke-opacity:1;stroke-dasharray:none"
       id="path8156"
       inkscape:connector-curvature="0" /><path
       d="m 1153.854,446.46112 c 0,3.13104 -2.5383,5.66928 -5.6693,5.66928 -3.1311,0 -5.6693,-2.53824 -5.6693,-5.66928 0,-3.13107 2.5382,-5.66931 5.6693,-5.66931 3.131,0 5.6693,2.53824 5.6693,5.66931"
       style="fill:none;stroke:#222226;stroke-width:1.44000006;stroke-linecap:butt;stroke-linejoin:miter;stroke-miterlimit:2;stroke-opacity:1;stroke-dasharray:none"
       id="path8158"
       inkscape:connector-curvature="0" /><path
       d="m 1153.854,482.46112 c 0,3.13104 -2.5383,5.66928 -5.6693,5.66928 -3.1311,0 -5.6693,-2.53824 -5.6693,-5.66928 0,-3.13107 2.5382,-5.66931 5.6693,-5.66931 3.131,0 5.6693,2.53824 5.6693,5.66931"
       style="fill:none;stroke:#222226;stroke-width:1.44000006;stroke-linecap:butt;stroke-linejoin:miter;stroke-miterlimit:2;stroke-opacity:1;stroke-dasharray:none"
       id="path8160"
       inkscape:connector-curvature="0" /><path
       d="m 1153.854,518.46112 c 0,3.13104 -2.5383,5.66925 -5.6693,5.66925 -3.1311,0 -5.6693,-2.53821 -5.6693,-5.66925 0,-3.1311 2.5382,-5.66931 5.6693,-5.66931 3.131,0 5.6693,2.53821 5.6693,5.66931"
       style="fill:none;stroke:#222226;stroke-width:1.44000006;stroke-linecap:butt;stroke-linejoin:miter;stroke-miterlimit:2;stroke-opacity:1;stroke-dasharray:none"
       id="path8162"
       inkscape:connector-curvature="0" /><path
       d="m 1189.854,554.46112 c 0,3.13104 -2.5383,5.66925 -5.6693,5.66925 -3.1311,0 -5.6693,-2.53821 -5.6693,-5.66925 0,-3.1311 2.5382,-5.66931 5.6693,-5.66931 3.131,0 5.6693,2.53821 5.6693,5.66931"
       style="fill:none;stroke:#222226;stroke-width:1.44000006;stroke-linecap:butt;stroke-linejoin:miter;stroke-miterlimit:2;stroke-opacity:1;stroke-dasharray:none"
       id="path8164"
       inkscape:connector-curvature="0" /><path
       d="m 1153.854,554.46112 c 0,3.13104 -2.5383,5.66925 -5.6693,5.66925 -3.1311,0 -5.6693,-2.53821 -5.6693,-5.66925 0,-3.1311 2.5382,-5.66931 5.6693,-5.66931 3.131,0 5.6693,2.53821 5.6693,5.66931"
       style="fill:none;stroke:#222226;stroke-width:1.44000006;stroke-linecap:butt;stroke-linejoin:miter;stroke-miterlimit:2;stroke-opacity:1;stroke-dasharray:none"
       id="path8166"
       inkscape:connector-curvature="0" /><path
       d="m 1077.1019,554.46112 c 0,3.13104 -2.5382,5.66925 -5.6693,5.66925 -3.131,0 -5.6692,-2.53821 -5.6692,-5.66925 0,-3.1311 2.5382,-5.66931 5.6692,-5.66931 3.1311,0 5.6693,2.53821 5.6693,5.66931"
       style="fill:none;stroke:#222226;stroke-width:1.44000006;stroke-linecap:butt;stroke-linejoin:miter;stroke-miterlimit:2;stroke-opacity:1;stroke-dasharray:none"
       id="path8168"
       inkscape:connector-curvature="0" /><path
       d="m 1112.418,893.97345 c -37.9771,65.7782 -108.1616,106.29925 -184.11569,106.29925"
       style="fill:none;stroke:#222226;stroke-width:1.44000006;stroke-linecap:butt;stroke-linejoin:miter;stroke-miterlimit:2;stroke-opacity:1;stroke-dasharray:none"
       id="path8170"
       inkscape:connector-curvature="0" /><path
       d="m 799.32593,770.46112 c 0,3.13104 -2.53821,5.66925 -5.66925,5.66925 -3.13111,0 -5.66931,-2.53821 -5.66931,-5.66925 0,-3.1311 2.5382,-5.66931 5.66931,-5.66931 3.13104,0 5.66925,2.53821 5.66925,5.66931"
       style="fill:none;stroke:#222226;stroke-width:1.44000006;stroke-linecap:butt;stroke-linejoin:miter;stroke-miterlimit:2;stroke-opacity:1;stroke-dasharray:none"
       id="path8172"
       inkscape:connector-curvature="0" /><path
       d="m 853.32593,770.46112 c 0,3.13104 -2.53821,5.66925 -5.66925,5.66925 -3.13111,0 -5.66931,-2.53821 -5.66931,-5.66925 0,-3.1311 2.5382,-5.66931 5.66931,-5.66931 3.13104,0 5.66925,2.53821 5.66925,5.66931"
       style="fill:none;stroke:#222226;stroke-width:1.44000006;stroke-linecap:butt;stroke-linejoin:miter;stroke-miterlimit:2;stroke-opacity:1;stroke-dasharray:none"
       id="path8174"
       inkscape:connector-curvature="0" /><path
       d="m 907.32593,770.46112 c 0,3.13104 -2.53821,5.66925 -5.66925,5.66925 -3.13111,0 -5.66931,-2.53821 -5.66931,-5.66925 0,-3.1311 2.5382,-5.66931 5.66931,-5.66931 3.13104,0 5.66925,2.53821 5.66925,5.66931"
       style="fill:none;stroke:#222226;stroke-width:1.44000006;stroke-linecap:butt;stroke-linejoin:miter;stroke-miterlimit:2;stroke-opacity:1;stroke-dasharray:none"
       id="path8176"
       inkscape:connector-curvature="0" /><path
       d="m 961.32593,770.46112 c 0,3.13104 -2.53821,5.66925 -5.66925,5.66925 -3.13111,0 -5.66931,-2.53821 -5.66931,-5.66925 0,-3.1311 2.5382,-5.66931 5.66931,-5.66931 3.13104,0 5.66925,2.53821 5.66925,5.66931"
       style="fill:none;stroke:#222226;stroke-width:1.44000006;stroke-linecap:butt;stroke-linejoin:miter;stroke-miterlimit:2;stroke-opacity:1;stroke-dasharray:none"
       id="path8178"
       inkscape:connector-curvature="0" /><path
       d="m 799.32593,716.46112 c 0,3.13104 -2.53821,5.66925 -5.66925,5.66925 -3.13111,0 -5.66931,-2.53821 -5.66931,-5.66925 0,-3.1311 2.5382,-5.66931 5.66931,-5.66931 3.13104,0 5.66925,2.53821 5.66925,5.66931"
       style="fill:none;stroke:#222226;stroke-width:1.44000006;stroke-linecap:butt;stroke-linejoin:miter;stroke-miterlimit:2;stroke-opacity:1;stroke-dasharray:none"
       id="path8180"
       inkscape:connector-curvature="0" /><path
       d="m 853.32593,716.46112 c 0,3.13104 -2.53821,5.66925 -5.66925,5.66925 -3.13111,0 -5.66931,-2.53821 -5.66931,-5.66925 0,-3.1311 2.5382,-5.66931 5.66931,-5.66931 3.13104,0 5.66925,2.53821 5.66925,5.66931"
       style="fill:none;stroke:#222226;stroke-width:1.44000006;stroke-linecap:butt;stroke-linejoin:miter;stroke-miterlimit:2;stroke-opacity:1;stroke-dasharray:none"
       id="path8182"
       inkscape:connector-curvature="0" /><path
       d="m 907.32593,716.46112 c 0,3.13104 -2.53821,5.66925 -5.66925,5.66925 -3.13111,0 -5.66931,-2.53821 -5.66931,-5.66925 0,-3.1311 2.5382,-5.66931 5.66931,-5.66931 3.13104,0 5.66925,2.53821 5.66925,5.66931"
       style="fill:none;stroke:#222226;stroke-width:1.44000006;stroke-linecap:butt;stroke-linejoin:miter;stroke-miterlimit:2;stroke-opacity:1;stroke-dasharray:none"
       id="path8184"
       inkscape:connector-curvature="0" /><path
       d="m 961.32593,716.46112 c 0,3.13104 -2.53821,5.66925 -5.66925,5.66925 -3.13111,0 -5.66931,-2.53821 -5.66931,-5.66925 0,-3.1311 2.5382,-5.66931 5.66931,-5.66931 3.13104,0 5.66925,2.53821 5.66925,5.66931"
       style="fill:none;stroke:#222226;stroke-width:1.44000006;stroke-linecap:butt;stroke-linejoin:miter;stroke-miterlimit:2;stroke-opacity:1;stroke-dasharray:none"
       id="path8186"
       inkscape:connector-curvature="0" /><path
       d="m 961.32593,662.46112 c 0,3.13104 -2.53821,5.66925 -5.66925,5.66925 -3.13111,0 -5.66931,-2.53821 -5.66931,-5.66925 0,-3.1311 2.5382,-5.66931 5.66931,-5.66931 3.13104,0 5.66925,2.53821 5.66925,5.66931"
       style="fill:none;stroke:#222226;stroke-width:1.44000006;stroke-linecap:butt;stroke-linejoin:miter;stroke-miterlimit:2;stroke-opacity:1;stroke-dasharray:none"
       id="path8188"
       inkscape:connector-curvature="0" /><path
       d="m 799.32593,662.46112 c 0,3.13104 -2.53821,5.66925 -5.66925,5.66925 -3.13111,0 -5.66931,-2.53821 -5.66931,-5.66925 0,-3.1311 2.5382,-5.66931 5.66931,-5.66931 3.13104,0 5.66925,2.53821 5.66925,5.66931"
       style="fill:none;stroke:#222226;stroke-width:1.44000006;stroke-linecap:butt;stroke-linejoin:miter;stroke-miterlimit:2;stroke-opacity:1;stroke-dasharray:none"
       id="path8190"
       inkscape:connector-curvature="0" /><path
       d="m 853.32593,662.46112 c 0,3.13104 -2.53821,5.66925 -5.66925,5.66925 -3.13111,0 -5.66931,-2.53821 -5.66931,-5.66925 0,-3.1311 2.5382,-5.66931 5.66931,-5.66931 3.13104,0 5.66925,2.53821 5.66925,5.66931"
       style="fill:none;stroke:#222226;stroke-width:1.44000006;stroke-linecap:butt;stroke-linejoin:miter;stroke-miterlimit:2;stroke-opacity:1;stroke-dasharray:none"
       id="path8192"
       inkscape:connector-curvature="0" /><path
       d="m 907.32593,662.46112 c 0,3.13104 -2.53821,5.66925 -5.66925,5.66925 -3.13111,0 -5.66931,-2.53821 -5.66931,-5.66925 0,-3.1311 2.5382,-5.66931 5.66931,-5.66931 3.13104,0 5.66925,2.53821 5.66925,5.66931"
       style="fill:none;stroke:#222226;stroke-width:1.44000006;stroke-linecap:butt;stroke-linejoin:miter;stroke-miterlimit:2;stroke-opacity:1;stroke-dasharray:none"
       id="path8194"
       inkscape:connector-curvature="0" /><path
       d="m 799.32593,824.46112 c 0,3.13104 -2.53821,5.66925 -5.66925,5.66925 -3.13111,0 -5.66931,-2.53821 -5.66931,-5.66925 0,-3.1311 2.5382,-5.66931 5.66931,-5.66931 3.13104,0 5.66925,2.53821 5.66925,5.66931"
       style="fill:none;stroke:#222226;stroke-width:1.44000006;stroke-linecap:butt;stroke-linejoin:miter;stroke-miterlimit:2;stroke-opacity:1;stroke-dasharray:none"
       id="path8196"
       inkscape:connector-curvature="0" /><path
       d="m 853.32593,824.46112 c 0,3.13104 -2.53821,5.66925 -5.66925,5.66925 -3.13111,0 -5.66931,-2.53821 -5.66931,-5.66925 0,-3.1311 2.5382,-5.66931 5.66931,-5.66931 3.13104,0 5.66925,2.53821 5.66925,5.66931"
       style="fill:none;stroke:#222226;stroke-width:1.44000006;stroke-linecap:butt;stroke-linejoin:miter;stroke-miterlimit:2;stroke-opacity:1;stroke-dasharray:none"
       id="path8198"
       inkscape:connector-curvature="0" /><path
       d="m 907.32593,824.46112 c 0,3.13104 -2.53821,5.66925 -5.66925,5.66925 -3.13111,0 -5.66931,-2.53821 -5.66931,-5.66925 0,-3.1311 2.5382,-5.66931 5.66931,-5.66931 3.13104,0 5.66925,2.53821 5.66925,5.66931"
       style="fill:none;stroke:#222226;stroke-width:1.44000006;stroke-linecap:butt;stroke-linejoin:miter;stroke-miterlimit:2;stroke-opacity:1;stroke-dasharray:none"
       id="path8200"
       inkscape:connector-curvature="0" /><path
       d="m 961.32593,824.46112 c 0,3.13104 -2.53821,5.66925 -5.66925,5.66925 -3.13111,0 -5.66931,-2.53821 -5.66931,-5.66925 0,-3.1311 2.5382,-5.66931 5.66931,-5.66931 3.13104,0 5.66925,2.53821 5.66925,5.66931"
       style="fill:none;stroke:#222226;stroke-width:1.44000006;stroke-linecap:butt;stroke-linejoin:miter;stroke-miterlimit:2;stroke-opacity:1;stroke-dasharray:none"
       id="path8202"
       inkscape:connector-curvature="0" /><path
       d="m 799.32593,844.8371 c 0,3.1311 -2.53821,5.66931 -5.66925,5.66931 -3.13111,0 -5.66931,-2.53821 -5.66931,-5.66931 0,-3.13105 2.5382,-5.66925 5.66931,-5.66925 3.13104,0 5.66925,2.5382 5.66925,5.66925"
       style="fill:none;stroke:#222226;stroke-width:1.44000006;stroke-linecap:butt;stroke-linejoin:miter;stroke-miterlimit:2;stroke-opacity:1;stroke-dasharray:none"
       id="path8204"
       inkscape:connector-curvature="0" /><path
       d="m 841.77478,975.68945 c 0,3.09192 -2.50653,5.59845 -5.59845,5.59845 -3.09192,0 -5.59839,-2.50653 -5.59839,-5.59845 0,-3.09192 2.50647,-5.59845 5.59839,-5.59845 3.09192,0 5.59845,2.50653 5.59845,5.59845"
       style="fill:none;stroke:#222226;stroke-width:1.44000006;stroke-linecap:butt;stroke-linejoin:miter;stroke-miterlimit:2;stroke-opacity:1;stroke-dasharray:none"
       id="path8206"
       inkscape:connector-curvature="0" /><path
       d="m 1225.854,662.46112 c 0,3.13104 -2.5383,5.66925 -5.6693,5.66925 -3.1311,0 -5.6693,-2.53821 -5.6693,-5.66925 0,-3.1311 2.5382,-5.66931 5.6693,-5.66931 3.131,0 5.6693,2.53821 5.6693,5.66931"
       style="fill:none;stroke:#222226;stroke-width:1.44000006;stroke-linecap:butt;stroke-linejoin:miter;stroke-miterlimit:2;stroke-opacity:1;stroke-dasharray:none"
       id="path8208"
       inkscape:connector-curvature="0" /><path
       d="m 1225.854,626.46112 c 0,3.13104 -2.5383,5.66925 -5.6693,5.66925 -3.1311,0 -5.6693,-2.53821 -5.6693,-5.66925 0,-3.1311 2.5382,-5.66931 5.6693,-5.66931 3.131,0 5.6693,2.53821 5.6693,5.66931"
       style="fill:none;stroke:#222226;stroke-width:1.44000006;stroke-linecap:butt;stroke-linejoin:miter;stroke-miterlimit:2;stroke-opacity:1;stroke-dasharray:none"
       id="path8210"
       inkscape:connector-curvature="0" /><path
       d="m 1171.7983,697.04376 c 0,3.13111 -2.5382,5.66931 -5.6691,5.66931 -3.1311,0 -5.6694,-2.5382 -5.6694,-5.66931 0,-3.13104 2.5383,-5.66925 5.6694,-5.66925 3.1309,0 5.6691,2.53821 5.6691,5.66925"
       style="fill:none;stroke:#222226;stroke-width:1.44000006;stroke-linecap:butt;stroke-linejoin:miter;stroke-miterlimit:2;stroke-opacity:1;stroke-dasharray:none"
       id="path8212"
       inkscape:connector-curvature="0" /><path
       d="m 1189.854,626.46112 c 0,3.13104 -2.5383,5.66925 -5.6693,5.66925 -3.1311,0 -5.6693,-2.53821 -5.6693,-5.66925 0,-3.1311 2.5382,-5.66931 5.6693,-5.66931 3.131,0 5.6693,2.53821 5.6693,5.66931"
       style="fill:none;stroke:#222226;stroke-width:1.44000006;stroke-linecap:butt;stroke-linejoin:miter;stroke-miterlimit:2;stroke-opacity:1;stroke-dasharray:none"
       id="path8214"
       inkscape:connector-curvature="0" /><path
       d="m 1189.854,662.46112 c 0,3.13104 -2.5383,5.66925 -5.6693,5.66925 -3.1311,0 -5.6693,-2.53821 -5.6693,-5.66925 0,-3.1311 2.5382,-5.66931 5.6693,-5.66931 3.131,0 5.6693,2.53821 5.6693,5.66931"
       style="fill:none;stroke:#222226;stroke-width:1.44000006;stroke-linecap:butt;stroke-linejoin:miter;stroke-miterlimit:2;stroke-opacity:1;stroke-dasharray:none"
       id="path8216"
       inkscape:connector-curvature="0" /><path
       d="m 1153.854,662.46112 c 0,3.13104 -2.5383,5.66925 -5.6693,5.66925 -3.1311,0 -5.6693,-2.53821 -5.6693,-5.66925 0,-3.1311 2.5382,-5.66931 5.6693,-5.66931 3.131,0 5.6693,2.53821 5.6693,5.66931"
       style="fill:none;stroke:#222226;stroke-width:1.44000006;stroke-linecap:butt;stroke-linejoin:miter;stroke-miterlimit:2;stroke-opacity:1;stroke-dasharray:none"
       id="path8218"
       inkscape:connector-curvature="0" /><path
       d="m 1153.854,626.46112 c 0,3.13104 -2.5383,5.66925 -5.6693,5.66925 -3.1311,0 -5.6693,-2.53821 -5.6693,-5.66925 0,-3.1311 2.5382,-5.66931 5.6693,-5.66931 3.131,0 5.6693,2.53821 5.6693,5.66931"
       style="fill:none;stroke:#222226;stroke-width:1.44000006;stroke-linecap:butt;stroke-linejoin:miter;stroke-miterlimit:2;stroke-opacity:1;stroke-dasharray:none"
       id="path8220"
       inkscape:connector-curvature="0" /><path
       d="m 1077.1212,844.8371 c 0,3.1311 -2.5382,5.66931 -5.6693,5.66931 -3.131,0 -5.6693,-2.53821 -5.6693,-5.66931 0,-3.13105 2.5383,-5.66925 5.6693,-5.66925 3.1311,0 5.6693,2.5382 5.6693,5.66925"
       style="fill:none;stroke:#222226;stroke-width:1.44000006;stroke-linecap:butt;stroke-linejoin:miter;stroke-miterlimit:2;stroke-opacity:1;stroke-dasharray:none"
       id="path8222"
       inkscape:connector-curvature="0" /><path
       d="m 708.61731,926.5719 0,11.33856"
       style="fill:none;stroke:#222226;stroke-width:1.44000006;stroke-linecap:butt;stroke-linejoin:miter;stroke-miterlimit:2;stroke-opacity:1;stroke-dasharray:none"
       id="path8224"
       inkscape:connector-curvature="0" /><path
       d="m 783.73541,986.09943 0,-19.84247"
       style="fill:none;stroke:#222226;stroke-width:1.44000006;stroke-linecap:butt;stroke-linejoin:miter;stroke-miterlimit:2;stroke-opacity:1;stroke-dasharray:none"
       id="path8226"
       inkscape:connector-curvature="0" /><path
       d="m 803.57794,986.09943 0,-19.84247"
       style="fill:none;stroke:#222226;stroke-width:1.44000006;stroke-linecap:butt;stroke-linejoin:miter;stroke-miterlimit:2;stroke-opacity:1;stroke-dasharray:none"
       id="path8228"
       inkscape:connector-curvature="0" /><path
       d="m 878.69604,937.91046 0,-11.33856"
       style="fill:none;stroke:#222226;stroke-width:1.44000006;stroke-linecap:butt;stroke-linejoin:miter;stroke-miterlimit:2;stroke-opacity:1;stroke-dasharray:none"
       id="path8230"
       inkscape:connector-curvature="0" /><path
       d="m 864.52283,912.39868 -141.7323,0"
       style="fill:none;stroke:#222226;stroke-width:1.44000006;stroke-linecap:butt;stroke-linejoin:miter;stroke-miterlimit:2;stroke-opacity:1;stroke-dasharray:none"
       id="path8232"
       inkscape:connector-curvature="0" /><path
       d="m 722.79053,952.08368 46.77166,0"
       style="fill:none;stroke:#222226;stroke-width:1.44000006;stroke-linecap:butt;stroke-linejoin:miter;stroke-miterlimit:2;stroke-opacity:1;stroke-dasharray:none"
       id="path8234"
       inkscape:connector-curvature="0" /><path
       d="m 817.75116,952.08368 46.77167,0"
       style="fill:none;stroke:#222226;stroke-width:1.44000006;stroke-linecap:butt;stroke-linejoin:miter;stroke-miterlimit:2;stroke-opacity:1;stroke-dasharray:none"
       id="path8236"
       inkscape:connector-curvature="0" /><path
       d="m 928.30231,1000.2727 -110.55115,0"
       style="fill:none;stroke:#222226;stroke-width:1.44000006;stroke-linecap:butt;stroke-linejoin:miter;stroke-miterlimit:2;stroke-opacity:1;stroke-dasharray:none"
       id="path8238"
       inkscape:connector-curvature="0" /><path
       d="m 769.56219,1000.2727 -110.5512,0"
       style="fill:none;stroke:#222226;stroke-width:1.44000006;stroke-linecap:butt;stroke-linejoin:miter;stroke-miterlimit:2;stroke-opacity:1;stroke-dasharray:none"
       id="path8240"
       inkscape:connector-curvature="0" /><path
       d="m 722.79053,952.08368 c -7.82764,0 -14.17322,-6.34552 -14.17322,-14.17322"
       style="fill:none;stroke:#222226;stroke-width:1.44000006;stroke-linecap:butt;stroke-linejoin:miter;stroke-miterlimit:2;stroke-opacity:1;stroke-dasharray:none"
       id="path8242"
       inkscape:connector-curvature="0" /><path
       d="m 708.61731,926.5719 c 0,-7.8277 6.34558,-14.17322 14.17322,-14.17322"
       style="fill:none;stroke:#222226;stroke-width:1.44000006;stroke-linecap:butt;stroke-linejoin:miter;stroke-miterlimit:2;stroke-opacity:1;stroke-dasharray:none"
       id="path8244"
       inkscape:connector-curvature="0" /><path
       d="m 769.56219,952.08368 c 7.82764,0 14.17322,6.34558 14.17322,14.17328"
       style="fill:none;stroke:#222226;stroke-width:1.44000006;stroke-linecap:butt;stroke-linejoin:miter;stroke-miterlimit:2;stroke-opacity:1;stroke-dasharray:none"
       id="path8246"
       inkscape:connector-curvature="0" /><path
       d="m 783.73541,986.09943 c 0,7.82769 -6.34558,14.17327 -14.17322,14.17327"
       style="fill:none;stroke:#222226;stroke-width:1.44000006;stroke-linecap:butt;stroke-linejoin:miter;stroke-miterlimit:2;stroke-opacity:1;stroke-dasharray:none"
       id="path8248"
       inkscape:connector-curvature="0" /><path
       d="m 864.52283,912.39868 c 7.82763,0 14.17321,6.34552 14.17321,14.17322"
       style="fill:none;stroke:#222226;stroke-width:1.44000006;stroke-linecap:butt;stroke-linejoin:miter;stroke-miterlimit:2;stroke-opacity:1;stroke-dasharray:none"
       id="path8250"
       inkscape:connector-curvature="0" /><path
       d="m 878.69604,937.91046 c 0,7.8277 -6.34558,14.17322 -14.17321,14.17322"
       style="fill:none;stroke:#222226;stroke-width:1.44000006;stroke-linecap:butt;stroke-linejoin:miter;stroke-miterlimit:2;stroke-opacity:1;stroke-dasharray:none"
       id="path8252"
       inkscape:connector-curvature="0" /><path
       d="m 817.75116,1000.2727 c -7.8277,0 -14.17322,-6.34558 -14.17322,-14.17327"
       style="fill:none;stroke:#222226;stroke-width:1.44000006;stroke-linecap:butt;stroke-linejoin:miter;stroke-miterlimit:2;stroke-opacity:1;stroke-dasharray:none"
       id="path8254"
       inkscape:connector-curvature="0" /><path
       d="m 803.57794,966.25696 c 0,-7.8277 6.34552,-14.17328 14.17322,-14.17328"
       style="fill:none;stroke:#222226;stroke-width:1.44000006;stroke-linecap:butt;stroke-linejoin:miter;stroke-miterlimit:2;stroke-opacity:1;stroke-dasharray:none"
       id="path8256"
       inkscape:connector-curvature="0" /></g></svg>